<svg width="160" height="74.429" version="1.1" xmlns="http://www.w3.org/2000/svg">
 <g stroke-width="4">
  <path d="m49.064 54.342c-0.10508 0-11.399-1.6548-11.508-1.6716-1.9831-0.312-2.9839-1.2864-2.9839-2.8992 0-1.6128 1.3841-2.5232 2.5287-2.5232h18.657v-6.9684h-18.615c-5.9089 0-9.9876 4.4896-9.9876 9.4916 0 4.3772 2.6282 8.9076 8.6422 9.8369 0.10506 0 11.401 1.6548 11.51 1.6712 1.9813 0.308 2.9858 1.2884 2.9858 2.8996 0 1.6104-1.3878 2.5212-2.5361 2.5212h-13.631c-2.7628 0.084-5.6693 2.1984-5.6693 6.3456v0.6176h19.266c5.9052 0 9.9839-4.49 9.9839-9.4921 0-4.3772-2.6245-8.9096-8.6422-9.8365m99.006-7.0944c2.7646-0.08 5.6711-2.204 5.6711-6.3528v-0.6152h-20.182c-5.9089 0-9.9858 4.4896-9.9858 9.4916v14.407c0 5.002 4.0769 9.4921 9.9858 9.4921h20.182v-0.6176c0-4.1472-2.9065-6.2624-5.6693-6.3456h-14.553c-1.1427 0-2.5324-0.91081-2.5324-2.5212 0-1.6108 1.0579-2.8992 2.9876-2.8992h6.3033c5.5513-0.052 8.7491-3.4376 9.7536-7.3208h-15.167c-2.7296 0-3.876 2.1636-3.876 2.1636v-6.3512c0-1.6128 1.3842-2.5228 2.5306-2.5228zm10.122 23.749c0 0.184-0.13268 0.312-0.37784 0.312h-0.48845v-0.638h0.47737c0.2396 0 0.38892 0.108 0.38892 0.324m0.49026-0.052c0-0.4492-0.33728-0.7168-0.86255-0.7168h-0.97868v2.1712h0.48472v-0.6984h0.3852l0.46818 0.6984h0.56581l-0.53633-0.778c0.28012-0.1 0.47365-0.32 0.47365-0.6764m0.84228 0.4232c0 1.0024-0.79252 1.8212-1.8375 1.8212-1.0413 0-1.8228-0.8072-1.8228-1.8104 0-1.004 0.78699-1.8184 1.8357-1.8184 1.0413 0 1.8246 0.8048 1.8246 1.8076m0.47553 0c0-1.2424-1.0082-2.2668-2.3002-2.2668-1.2938 0-2.3149 1.0352-2.3149 2.28 0 1.2452 1.01 2.2684 2.302 2.2684 1.2938 0 2.3131-1.0376 2.3131-2.2816m-78.218-31.123v19.863c0 4.1508-3.3636 7.512-7.5087 7.512-4.1506 0-7.5124-3.3612-7.5124-7.512v-19.863h-7.2341v19.447c0 8.1444 6.6019 14.746 14.746 14.746 8.1409 0 14.741-6.602 14.741-14.746v-19.447zm39.888 23.912c0 5.002-4.0769 9.4921-9.9839 9.4921h-18.613v-6.9704h18.652c1.1446 0 2.5324-0.9108 2.5324-2.5216 0-1.6112-1.0026-2.5896-2.9876-2.8996-0.10508 0-11.399-1.6548-11.506-1.6712-6.0176-0.9288-8.6422-5.4596-8.6422-9.8365 0-5.002 4.0769-9.492 9.9858-9.492h18.615v6.9684h-18.656c-1.1446 0-2.5324 0.9108-2.5324 2.5236 0 1.6128 1.0082 2.5856 2.9858 2.8988 0.10876 0 11.403 1.6572 11.508 1.672 6.0158 0.9268 8.6422 5.4588 8.6422 9.8365" fill="#0d2c40"/>
  <path d="m76.58 11.525c0.05172-1.4596 0.66351-2.8124 1.7325-3.8056 1.0634-0.9992 2.4568-1.5132 3.9165-1.4652 3.0153 0.108 5.3763 2.6468 5.2767 5.658-0.05528 1.456-0.66535 2.8072-1.7343 3.8044-1.0616 0.9988-2.455 1.5132-3.9184 1.4632-3.0097-0.108-5.3726-2.6448-5.273-5.6548m-8.7712-10.562s-0.04808 2.6504-0.05344 2.9452c-1.3049-0.4336-10.791-3.4984-19.682-3.8096-7.54-0.268-17.835-0.6248-32.387 8.3176l-0.42945 0.272c-6.8433 4.2704-11.569 9.5341-14.039 15.653-0.77594 1.9264-1.8191 6.2704-0.78699 10.355 0.44601 1.7892 1.2773 3.5828 2.396 5.19 2.5269 3.6288 6.7678 6.0396 11.335 6.4468 6.4471 0.5752 11.333-2.322 13.067-7.7424 1.198-3.7432 0-9.232-4.5764-12.034-3.7212-2.282-7.7299-1.76-10.048-0.224-2.0163 1.3364-3.159 3.4112-3.1388 5.6928 0.045976 4.0436 3.5295 6.1948 6.0342 6.1984 0.72801 0 1.4597-0.124 2.2854-0.396 0.29304-0.088 0.56767-0.2 0.87178-0.388l0.09582-0.064 0.06081-0.052h-0.02404c0.57135-0.38 0.92154-1.0172 0.92154-1.6936 0-0.188-0.03136-0.376-0.08296-0.5672-0.29487-1.0196-1.3049-1.6428-2.3554-1.4488l-0.14007 0.052-0.19351 0.064-0.27831 0.096c-0.57504 0.148-1.01 0.156-1.1003 0.156-0.29675 0-1.7399-0.4492-1.7399-2.0332 0.0058-0.5804 0.23777-0.986 0.36493-1.2092 0.44784-0.702 1.6754-1.3932 3.336-1.2476 2.1767 0.188 3.747 1.3032 4.7865 3.408 0.96761 1.9608 0.71327 4.368-0.64876 6.1336-1.3565 1.7528-3.7654 2.4936-6.9724 2.1472-3.2328-0.356-5.966-2.2152-7.4976-5.1144-1.4966-2.8272-1.5795-6.1872-0.21379-8.766 3.2751-6.1756 9.455-6.1152 12.844-5.5288 4.8141 0.8332 12.118 5.1512 14.859 15.15h6.6646c-0.82386-2.5504-1.2994-9.9285 6.2038-9.9285 8.2256 0 9.2651 5.7928 11.595 9.9285h7.0608c-1.8578-2.6592-3.1627-5.6192-2.7499-8.1072 0.60822-3.6732 3.535-3.3436 7.5787-2.8828 1.3196 0.152 2.8254 0.324 4.3828 0.356 4.3404 0 8.2773-0.772 11.162-2.0328 1.867-0.8168 3.0577-1.3548 3.8041-2.0312 0.26912-0.22 0.40918-0.5856 0.55108-0.9712l0.09952-0.256c0.12352-0.312 0.282-0.98041 0.37412-1.338 0.19168-0.7372-0.46074-0.344-0.46074-0.344-1.2625 0.7596-4.4326 2.206-7.3944 2.2652-3.6714 0.072-11.07-3.6936-11.842-4.0956l-0.07372-0.088c-0.18616-0.444-1.2957-3.0688-1.5316-3.6236 5.3283 3.5092 9.7443 5.4488 13.126 5.7492 3.7654 0.336 6.7014-1.72 7.9547-2.5956 0.13268-0.088 0.63217-0.4284 0.51419-0.8292-0.49209-1.7104-2.1803-7.4384-3.5866-8.8928-0.41101-0.4232-0.73907-0.8328-1.4063-1.222-5.3836-3.1368-18.156-5.0312-18.755-5.118 0 0-0.14744-0.052-0.14188 0.12" fill="#02d35f"/>
  <path d="m82.81 12.032c-0.93812 0-1.6901-0.5068-1.6901-1.128 0-0.6232 0.75197-1.128 1.6901-1.128 0.93444 0 1.6919 0.5068 1.6919 1.128 0 0.6212-0.75751 1.128-1.6919 1.128m-0.62665-4.1672c-1.0174-0.052-1.985 0.324-2.7259 1.0172-0.74276 0.6952-1.1777 1.6348-1.2091 2.6544-0.06816 2.1028 1.5777 3.872 3.6769 3.9496 1.0211 0.052 1.9887-0.328 2.7351-1.0216 0.74644-0.6984 1.1759-1.64 1.2054-2.654 0.07188-2.1064-1.5777-3.874-3.6825-3.9456" fill="#02d35f"/>
 </g>
</svg>
